<?xml version="1.0" encoding="UTF-8"?>
<svg id="Layer_1" xmlns="http://www.w3.org/2000/svg" version="1.1" viewBox="0 0 836.4 202.2">
  <!-- Generator: Adobe Illustrator 29.8.2, SVG Export Plug-In . SVG Version: 2.1.1 Build 3)  -->
  <defs>
    <style>
      .st0 {
        fill: #fff;
      }
    </style>
  </defs>
  <g>
    <path class="st0" d="M246.1,80.8c1.2,0,2.2-.4,3-1.1.8-.7,1.2-1.6,1.2-2.8s-.4-2.1-1.2-2.9c-.8-.8-1.8-1.1-3-1.1h-22.9c-1.2,0-2.2.4-3,1.2-.8.8-1.2,1.8-1.2,3v39.4c0,1.2.4,2.2,1.2,3,.8.8,1.8,1.2,3,1.2h22.9c1.2,0,2.2-.4,3-1.1.8-.7,1.2-1.7,1.2-2.8s-.4-2-1.2-2.8c-.8-.8-1.8-1.2-3-1.2h-18.5v-12.6h15.4c1.2,0,2.2-.4,3-1.1.8-.7,1.2-1.6,1.2-2.8s-.4-2.1-1.2-2.9c-.8-.8-1.8-1.1-3-1.1h-15.4v-11.6h18.5Z"/>
    <path class="st0" d="M303.9,72.8c-1.7,0-3,.9-3.8,2.6l-12.6,32.2-13.7-32.2c-.8-1.8-2-2.7-3.8-2.7s-1.8.4-2.7,1.1c-1,.7-1.4,1.7-1.4,3s0,.6,0,.9c0,.3.1.6.3.9l16.8,39.6c.4.8.9,1.4,1.6,1.9.7.4,1.4.7,2.1.7.8,0,1.5-.2,2.3-.6.8-.4,1.3-1.1,1.7-2l16.8-39.4c.3-.6.4-1.3.4-1.8,0-1.1-.4-2.1-1.3-2.8-.8-.8-1.8-1.1-3-1.1Z"/>
    <path class="st0" d="M353.1,80.8c1.2,0,2.2-.4,3-1.1.8-.7,1.2-1.6,1.2-2.8s-.4-2.1-1.2-2.9c-.8-.8-1.8-1.1-3-1.1h-22.9c-1.2,0-2.2.4-3,1.2-.8.8-1.2,1.8-1.2,3v39.4c0,1.2.4,2.2,1.2,3,.8.8,1.8,1.2,3,1.2h22.9c1.2,0,2.2-.4,3-1.1.8-.7,1.2-1.7,1.2-2.8s-.4-2-1.2-2.8c-.8-.8-1.8-1.2-3-1.2h-18.5v-12.6h15.4c1.2,0,2.2-.4,3-1.1.8-.7,1.2-1.6,1.2-2.8s-.4-2.1-1.2-2.9c-.8-.8-1.8-1.1-3-1.1h-15.4v-11.6h18.5Z"/>
    <path class="st0" d="M412.3,72.9c-1.1,0-2,.4-2.7,1.1-.7.7-1,1.6-1,2.7v29.4l-24.8-31.7c-.3-.5-.8-.9-1.5-1.1-.7-.2-1.3-.4-2-.4-1.2,0-2.2.4-3,1.2-.8.8-1.2,1.8-1.2,3v39.8c0,1.1.3,2,1,2.7.7.7,1.6,1.1,2.7,1.1s2.1-.4,2.8-1.1c.7-.7,1.1-1.6,1.1-2.7v-29.1l25,31.8c.3.4.8.6,1.4.9s1.2.3,1.8.3c1.2,0,2.2-.4,3-1.2.8-.8,1.2-1.8,1.2-3v-39.8c0-1.1-.3-2-1-2.7-.7-.7-1.6-1.1-2.7-1.1Z"/>
    <path class="st0" d="M471.4,74c-.8-.7-1.8-1.1-3-1.1h-30.3c-1.2,0-2.2.4-3,1.1-.8.7-1.2,1.6-1.2,2.8s.4,2.1,1.2,2.9c.8.7,1.8,1.1,3,1.1h10.7v35.7c0,1.2.4,2.2,1.2,3,.8.8,1.9,1.2,3.1,1.2s2.4-.4,3.2-1.2c.8-.8,1.3-1.8,1.3-3v-35.7h10.7c1.2,0,2.2-.4,3-1.1.8-.7,1.2-1.6,1.2-2.8s-.4-2.1-1.2-2.9Z"/>
  </g>
  <g>
    <path class="st0" d="M529.7,97.2c-1.4-1.1-3.1-1.9-5.2-2.6-2.1-.7-4.5-1.3-7.2-1.8-2.1-.4-3.9-.9-5.4-1.4-1.5-.5-2.6-1.2-3.4-2.1s-1.2-2-1.2-3.4.3-2.1,1-3c.7-.9,1.7-1.5,3-2,1.3-.5,3-.8,4.9-.8s2.5.2,3.8.6c1.4.4,2.7.9,3.9,1.4,1.2.6,2.2,1.2,2.9,1.8.5.4,1.2.6,1.8.6,1,0,2-.4,2.7-1.2.8-.8,1.2-1.7,1.2-2.7s-.7-2.6-2-3.6c-1.6-1.4-3.6-2.5-6.2-3.4-2.5-.9-5.3-1.3-8.2-1.3s-6,.5-8.6,1.6c-2.6,1.1-4.7,2.7-6.2,4.8-1.5,2.1-2.3,4.6-2.3,7.6s.3,3.7,1,5.3c.6,1.6,1.6,2.9,2.8,4.1,1.3,1.2,2.8,2.1,4.7,2.9,1.9.8,4,1.3,6.5,1.7,2.6.4,4.7.9,6.4,1.5,1.7.7,2.9,1.5,3.8,2.4s1.2,2.1,1.2,3.5-.4,2.1-1.3,3c-.9.9-2,1.6-3.4,2.1-1.4.5-3,.8-4.6.8-2.5,0-4.6-.4-6.3-1.1-1.7-.7-3.4-1.8-5.2-3.2-.7-.5-1.5-.8-2.3-.8s-2.1.4-2.8,1.2c-.7.8-1.1,1.7-1.1,2.8s.2,1.3.5,1.9c.3.6.8,1.2,1.4,1.7,2.3,2,4.8,3.4,7.3,4.2,2.5.8,5.4,1.2,8.6,1.2s6-.6,8.6-1.7c2.7-1.1,4.8-2.8,6.4-4.9,1.6-2.1,2.5-4.7,2.5-7.6s-.3-4.3-1-5.9c-.7-1.6-1.7-3-3.1-4Z"/>
    <path class="st0" d="M578.9,75c-2.1-1.4-4.3-2-6.7-2h-15.6c-1.2,0-2.2.4-3,1.2-.8.8-1.2,1.8-1.2,3v39.4c0,1.2.4,2.2,1.1,3,.7.8,1.7,1.2,2.8,1.2s2.1-.4,2.9-1.2c.7-.8,1.1-1.8,1.1-3v-12.9h11.9c2.4,0,4.6-.7,6.7-2.1,2.1-1.4,3.7-3.2,5-5.6,1.3-2.3,1.9-4.9,1.9-7.7s-.6-5.5-1.9-7.8c-1.3-2.3-2.9-4.2-5-5.5ZM576.8,91.9c-.5,1.2-1.2,2.1-2,2.8-.8.7-1.7,1.1-2.5,1.1h-11.9v-15.1h11.9c.9,0,1.7.4,2.5,1.1.8.7,1.5,1.6,2,2.8.5,1.1.8,2.4.8,3.7s-.3,2.5-.8,3.6Z"/>
    <path class="st0" d="M639.2,72.9c-1.1,0-2.1.4-3,1.2-.9.8-1.3,1.8-1.3,3v15.7h-21.8v-15.7c0-1.2-.4-2.2-1.3-3-.8-.8-1.8-1.2-2.9-1.2s-2.3.4-3.1,1.2c-.8.8-1.2,1.8-1.2,3v39.4c0,1.2.4,2.2,1.2,3,.8.8,1.8,1.2,3.1,1.2s2.1-.4,3-1.2c.9-.8,1.3-1.8,1.3-3v-15.9h21.8v15.9c0,1.2.4,2.2,1.3,3,.8.8,1.8,1.2,2.9,1.2s2.4-.4,3.2-1.2c.8-.8,1.2-1.8,1.2-3v-39.4c0-1.2-.4-2.2-1.2-3-.8-.8-1.8-1.2-3.1-1.2Z"/>
    <path class="st0" d="M691.5,80.8c1.2,0,2.2-.4,3-1.1.8-.7,1.2-1.6,1.2-2.8s-.4-2.1-1.2-2.9c-.8-.8-1.8-1.1-3-1.1h-22.9c-1.2,0-2.2.4-3,1.2-.8.8-1.2,1.8-1.2,3v39.4c0,1.2.4,2.2,1.2,3,.8.8,1.8,1.2,3,1.2h22.9c1.2,0,2.2-.4,3-1.1.8-.7,1.2-1.7,1.2-2.8s-.4-2-1.2-2.8c-.8-.8-1.8-1.2-3-1.2h-18.5v-12.6h15.4c1.2,0,2.2-.4,3-1.1.8-.7,1.2-1.6,1.2-2.8s-.4-2.1-1.2-2.9c-.8-.8-1.8-1.1-3-1.1h-15.4v-11.6h18.5Z"/>
    <path class="st0" d="M751.8,114c-.6-.3-1-.8-1.2-1.4-.2-.6-.3-1.3-.4-2.2,0-.9-.2-1.9-.4-3,0-1.2-.4-2.4-.9-3.4-.5-1.1-1.1-2.1-2-3-.5-.6-1.2-1.1-1.9-1.6,1-.6,1.9-1.4,2.7-2.3,1.2-1.3,2.2-2.8,2.9-4.4s1.1-3.3,1.1-5c0-2.9-.6-5.4-1.9-7.6-1.3-2.2-2.9-3.9-5-5.2-2.1-1.3-4.3-1.9-6.7-1.9h-19.6c-1.2,0-2.2.4-3,1.2-.8.8-1.2,1.8-1.2,3v39.4c0,1.2.5,2.2,1.5,3,1,.8,2.1,1.2,3.4,1.2s2-.4,2.7-1.2c.6-.8,1-1.8,1-3v-13.2h12.8c1,0,2,.1,2.7.4.8.3,1.4.6,1.9,1.1.5.5.9,1,1.2,1.7.3.7.4,1.4.4,2.1,0,2.4.2,4.3.7,5.8.5,1.5,1.1,2.7,1.9,3.6.8.9,1.5,1.6,2.3,2,.5.3,1.1.5,1.9.6.8.2,1.5.2,2.3,0,.8-.2,1.4-.5,1.9-1.1.8-.9,1-1.9.8-3-.3-1.1-.9-2-1.9-2.6ZM742.2,92.1c-.5,1.3-1.1,2.3-1.9,3.1-.8.8-1.6,1.1-2.4,1.1h-14.9v-15.5h14.9c1.2,0,2.4.7,3.4,2,1.1,1.3,1.6,3,1.6,5s-.2,3-.7,4.3Z"/>
    <path class="st0" d="M799.2,112.8h-18.5v-12.6h15.4c1.2,0,2.2-.4,3-1.1.8-.7,1.2-1.6,1.2-2.8s-.4-2.1-1.2-2.9c-.8-.8-1.8-1.1-3-1.1h-15.4v-11.6h18.5c1.2,0,2.2-.4,3-1.1.8-.7,1.2-1.6,1.2-2.8s-.4-2.1-1.2-2.9c-.8-.8-1.8-1.1-3-1.1h-22.9c-1.2,0-2.2.4-3,1.2-.8.8-1.2,1.8-1.2,3v39.4c0,1.2.4,2.2,1.2,3,.8.8,1.8,1.2,3,1.2h22.9c1.2,0,2.2-.4,3-1.1.8-.7,1.2-1.7,1.2-2.8s-.4-2-1.2-2.8c-.8-.8-1.8-1.2-3-1.2Z"/>
  </g>
  <g>
    <path class="st0" d="M566.1,148.4c-.6-.5-1.4-.9-2.3-1.2-.9-.3-1.8-.6-2.9-.9-1-.3-1.8-.5-2.6-.9-.8-.3-1.4-.8-1.9-1.3-.5-.5-.7-1.2-.7-2s.2-1.3.6-1.9c.4-.5,1-.9,1.7-1.2.7-.3,1.6-.4,2.6-.4s1.3,0,2,.3c.7.2,1.3.4,1.8.8.5.3,1,.7,1.4,1.1.2.2.4.3.6.3.3,0,.6-.1.9-.4.3-.3.4-.6.4-.9s-.2-.8-.6-1.2c-.7-.7-1.6-1.3-2.8-1.8-1.2-.4-2.4-.6-3.7-.6s-2.8.2-3.9.7-2,1.2-2.6,2.1c-.6.9-1,2-1,3.2s.2,1.8.5,2.5c.3.7.8,1.3,1.4,1.8.6.5,1.3.9,2.1,1.3.8.3,1.7.6,2.7.9,1.1.3,2.1.6,2.9.9.8.4,1.5.8,2,1.4.5.6.7,1.3.7,2.1,0,.7-.2,1.3-.7,1.8-.4.5-1,.9-1.8,1.2-.8.3-1.6.4-2.5.4s-2.3-.2-3.3-.6c-1-.4-1.9-1-2.7-1.8-.2-.2-.5-.4-.8-.4s-.7.1-.9.4c-.2.3-.4.6-.4.9s0,.4.1.6.2.3.4.5c1.1,1,2.2,1.8,3.4,2.2,1.2.5,2.6.7,4.1.7,1.4,0,2.7-.3,3.8-.8,1.1-.5,2-1.2,2.7-2.2.7-.9,1-2,1-3.1s-.2-2-.5-2.8c-.3-.8-.8-1.4-1.5-1.9Z"/>
    <path class="st0" d="M599.2,139.5c-1-1-2.1-1.8-3.4-2.4-1.3-.6-2.7-.9-4.3-.9s-3,.3-4.3.9c-1.3.6-2.4,1.4-3.4,2.4-1,1-1.7,2.2-2.2,3.6-.5,1.4-.8,2.9-.8,4.6s.3,3.1.8,4.5c.5,1.4,1.3,2.6,2.2,3.6,1,1,2.1,1.8,3.4,2.4,1.3.6,2.7.9,4.3.9s3-.3,4.3-.9,2.4-1.4,3.4-2.4c1-1,1.7-2.3,2.2-3.6.5-1.4.8-2.9.8-4.5s-.3-3.2-.8-4.6c-.5-1.4-1.3-2.6-2.2-3.6ZM598.4,152.3c-.7,1.3-1.6,2.4-2.8,3.2-1.2.8-2.6,1.1-4.1,1.1s-2.9-.4-4.1-1.1c-1.2-.8-2.1-1.8-2.8-3.2-.7-1.3-1-2.9-1-4.6s.3-3.3,1-4.6c.7-1.3,1.6-2.4,2.8-3.2,1.2-.8,2.6-1.1,4.1-1.1s2.9.4,4.1,1.1c1.2.8,2.1,1.8,2.8,3.2.7,1.3,1,2.9,1,4.6s-.3,3.3-1,4.6Z"/>
    <path class="st0" d="M628.5,156.3h-9.6v-18.5c0-.4-.1-.7-.4-.9-.3-.2-.6-.4-.9-.4s-.7.1-1,.4c-.3.2-.4.5-.4.9v19.7c0,.4.1.7.4.9.2.3.5.4.9.4h11c.4,0,.7-.1.9-.4.3-.2.4-.5.4-.9s-.1-.7-.4-.9c-.3-.2-.6-.4-.9-.4Z"/>
    <path class="st0" d="M658.4,136.5c-.4,0-.7.1-.9.4s-.3.6-.3.9v12.6c0,1.2-.3,2.2-.8,3.1-.6.9-1.3,1.6-2.2,2.2s-1.9.8-3,.8-2-.3-2.9-.8-1.6-1.2-2.1-2.2c-.5-.9-.8-2-.8-3.1v-12.6c0-.4-.1-.7-.4-.9-.3-.3-.6-.4-.9-.4s-.7.1-1,.4c-.2.3-.4.6-.4.9v12.6c0,1.6.4,3.1,1.1,4.4.7,1.3,1.8,2.3,3,3.1s2.7,1.1,4.4,1.1,3-.4,4.3-1.1c1.3-.8,2.3-1.8,3-3.1.8-1.3,1.1-2.8,1.1-4.4v-12.6c0-.4-.1-.7-.3-.9s-.5-.4-.9-.4Z"/>
    <path class="st0" d="M689.3,136.5h-14.8c-.4,0-.7.1-.9.3-.2.2-.4.5-.4.9s.1.7.4.9c.2.2.5.3.9.3h6v18.6c0,.4.1.7.4.9s.6.4,1,.4.7-.1,1-.4.4-.6.4-.9v-18.6h6c.4,0,.7-.1.9-.3.3-.2.4-.5.4-.9s-.1-.7-.4-.9c-.3-.2-.6-.3-.9-.3Z"/>
    <path class="st0" d="M705.6,136.5c-.4,0-.7.1-1,.4-.3.2-.4.6-.4.9v19.7c0,.4.1.7.3.9.2.3.5.4,1,.4s.7-.1.9-.4c.3-.3.4-.6.4-.9v-19.7c0-.4-.1-.7-.4-.9-.3-.2-.6-.4-.9-.4Z"/>
    <path class="st0" d="M739.3,139.5c-1-1-2.1-1.8-3.4-2.4-1.3-.6-2.7-.9-4.3-.9s-3,.3-4.3.9c-1.3.6-2.4,1.4-3.4,2.4-1,1-1.7,2.2-2.2,3.6-.5,1.4-.8,2.9-.8,4.6s.3,3.1.8,4.5c.5,1.4,1.3,2.6,2.2,3.6,1,1,2.1,1.8,3.4,2.4,1.3.6,2.7.9,4.3.9s3-.3,4.3-.9,2.4-1.4,3.4-2.4c1-1,1.7-2.3,2.2-3.6.5-1.4.8-2.9.8-4.5s-.3-3.2-.8-4.6c-.5-1.4-1.3-2.6-2.2-3.6ZM738.6,152.3c-.7,1.3-1.6,2.4-2.8,3.2-1.2.8-2.6,1.1-4.1,1.1s-2.9-.4-4.1-1.1c-1.2-.8-2.1-1.8-2.8-3.2-.7-1.3-1-2.9-1-4.6s.3-3.3,1-4.6c.7-1.3,1.6-2.4,2.8-3.2,1.2-.8,2.6-1.1,4.1-1.1s2.9.4,4.1,1.1c1.2.8,2.1,1.8,2.8,3.2.7,1.3,1,2.9,1,4.6s-.3,3.3-1,4.6Z"/>
    <path class="st0" d="M772.8,136.5c-.3,0-.6.1-.8.3-.2.2-.3.5-.3.8v16.5l-13-17.2c-.1-.1-.3-.3-.5-.3-.2,0-.4-.1-.6-.1-.3,0-.6.1-.9.4-.2.2-.4.5-.4.9v19.8c0,.3.1.6.3.8s.5.3.8.3.7-.1.9-.3c.2-.2.3-.5.3-.8v-16.4l12.9,17.2c.1.1.3.2.4.3.2,0,.4.1.6.1.4,0,.7-.1.9-.4.3-.2.4-.6.4-1v-19.8c0-.3-.1-.6-.3-.8-.2-.2-.5-.3-.9-.3Z"/>
    <path class="st0" d="M802.8,150.3c-.3-.8-.8-1.4-1.5-1.9-.6-.5-1.4-.9-2.3-1.2-.9-.3-1.8-.6-2.9-.9-1-.3-1.8-.5-2.6-.9-.8-.3-1.4-.8-1.9-1.3-.5-.5-.7-1.2-.7-2s.2-1.3.6-1.9c.4-.5,1-.9,1.7-1.2.7-.3,1.6-.4,2.6-.4s1.3,0,2,.3c.7.2,1.3.4,1.8.8.5.3,1,.7,1.4,1.1.2.2.4.3.6.3.3,0,.6-.1.9-.4.3-.3.4-.6.4-.9s-.2-.8-.6-1.2c-.7-.7-1.6-1.3-2.8-1.8-1.2-.4-2.4-.6-3.7-.6s-2.8.2-3.9.7-2,1.2-2.6,2.1c-.6.9-1,2-1,3.2s.2,1.8.5,2.5c.3.7.8,1.3,1.4,1.8.6.5,1.3.9,2.1,1.3.8.3,1.7.6,2.7.9,1.1.3,2.1.6,2.9.9.8.4,1.5.8,2,1.4.5.6.7,1.3.7,2.1,0,.7-.2,1.3-.7,1.8-.4.5-1,.9-1.8,1.2-.8.3-1.6.4-2.5.4s-2.3-.2-3.3-.6c-1-.4-1.9-1-2.7-1.8-.2-.2-.5-.4-.8-.4s-.7.1-.9.4c-.2.3-.4.6-.4.9s0,.4.1.6.2.3.4.5c1.1,1,2.2,1.8,3.4,2.2,1.2.5,2.6.7,4.1.7,1.4,0,2.7-.3,3.8-.8,1.1-.5,2-1.2,2.7-2.2.7-.9,1-2,1-3.1s-.2-2-.5-2.8Z"/>
  </g>
  <path class="st0" d="M35.9,104.2c.7-3.5,3.2-7.8,6.2-11.6l-.7,3.7c-2.9,5.2-2.1,7.7,1.8,7.9,14.5,1.3,70.1-31.8,86.2-54.7.5-.7.9-1.5,1.3-2.3,3.3-8.4-8.8-5.7-17.5-2l-5.7-.3c10.4-4.7,22.5-9.3,29.4-6.4,1.5.7,2.6,2.1,2.7,3.7.8,10-20.1,30.5-39,42.9-21.5,14.3-45.9,27.4-59.9,25.7-3.2-.4-5.4-3.4-4.7-6.6ZM167.7,94.2l1.1,4.5c3.7.8,5.5,2.4,5.1,4.8,0,.6-.3,1.1-.6,1.6-12.2,17.9-101.5,39.4-121,34.6-.4-.1-.8-.2-1.2-.3-4.4-.9-6.2-2.9-6.1-5.3h-.6c30.4.8,83.4-22.1,116.3-47.3,9.9-6.9,18.2-19.9,11.1-25.1-.9-.6-1.9-1-3-1.3-6-1.4-13.3-.9-21.2.3l3.1,3.2c10.8-1.2,16.7,1.3,12.5,7.3-15.1,22-95.7,55.4-118.5,54.4-.4,0-.7,0-1,0-4.5-.6-6-3.1-3.4-8v-3.4c-6.7,6.7-11.4,16.4-1.3,19.2.5.2,1.3.3,2,.4-3.9,5.4-3.5,9.8,3.9,12.4,1.3.5,2.7.8,4.1,1-.6.7-1.2,1.4-1.7,2.2-1.2,1.9-.9,4.3.4,6,11.6,14.7,94.8,11.1,121.4-6.9.9-.6,1.8-1.3,2.5-2.1,4.8-5.1,1.3-9.3-6.6-12.3l-1.6,3.8c2.4.9,2.7,3.2.8,5.2-4.3,4.5-16.2,7.4-30,9.8-14.9,2.5-29.9,3.8-45,3.9-19.6,0-38.6-1.8-36.3-8.8,37.9,4.9,117.6-20.1,130.4-40.5,4.9-8-4-11.8-15.7-13.1Z"/>
</svg>